<svg width="56" height="59" viewBox="0 0 56 59" fill="none" xmlns="http://www.w3.org/2000/svg">
<g clip-path="url(#clip0_1_8243)">
<path d="M43.3061 16.2122C43.3053 15.9874 43.3001 15.7637 43.2901 15.5411V2.85117L39.7818 6.35942C36.9105 2.84482 32.5425 0.600006 27.65 0.600006C22.5584 0.600006 18.0351 3.03029 15.1758 6.79398L20.9262 12.6049C21.4898 11.5627 22.2904 10.6675 23.2556 9.99139C24.2596 9.20795 25.6821 8.56739 27.6498 8.56739C27.8875 8.56739 28.071 8.59516 28.2058 8.6475C30.6438 8.83993 32.7571 10.1854 34.0014 12.1383L29.931 16.2087C35.0867 16.1885 40.9111 16.1766 43.3056 16.2113" fill="#1C3AA9"/>
<path d="M27.5585 0.600555C27.3337 0.601302 27.11 0.606491 26.8874 0.616571H14.1975L17.7057 4.12482C14.1911 6.99613 11.9463 11.3641 11.9463 16.2567C11.9463 21.3482 14.3766 25.8715 18.1403 28.7308L23.9512 22.9804C22.909 22.4168 22.0138 21.6163 21.3377 20.651C20.5543 19.6471 19.9137 18.2246 19.9137 16.2568C19.9137 16.0191 19.9414 15.8357 19.9938 15.7008C20.1862 13.2628 21.5317 11.1495 23.4846 9.90522L27.555 13.9757C27.5348 8.81994 27.5229 2.99556 27.5576 0.601003" fill="#4285F4"/>
<path d="M11.9468 16.2563C11.9475 16.4812 11.9527 16.7048 11.9628 16.9274V29.6174L15.471 26.1091C18.3424 29.6237 22.7104 31.8685 27.6029 31.8685C32.6944 31.8685 37.2177 29.4382 40.0771 25.6746L34.3266 19.8636C33.7631 20.9059 32.9625 21.801 31.9972 22.4771C30.9933 23.2606 29.5708 23.9011 27.6031 23.9011C27.3654 23.9011 27.1819 23.8734 27.0471 23.821C24.609 23.6286 22.4958 22.2831 21.2514 20.3303L25.3219 16.2598C20.1662 16.28 14.3418 16.2919 11.9472 16.2572" fill="#ABABAB"/>
<path d="M14.5886 37.9317C14.2072 37.9317 13.8653 38.004 13.5628 38.1486C13.2604 38.29 13.0039 38.4922 12.7935 38.7552C12.5864 39.0182 12.427 39.3371 12.3152 39.7119C12.2067 40.0833 12.1524 40.4992 12.1524 40.9595V42.286C12.1524 42.7495 12.2067 43.1671 12.3152 43.5386C12.427 43.9101 12.5848 44.2273 12.7886 44.4903C12.9924 44.7533 13.239 44.9555 13.5283 45.0969C13.8176 45.2382 14.1431 45.3089 14.5047 45.3089C14.8762 45.3089 15.2017 45.2547 15.4811 45.1462C15.7638 45.0377 16.0005 44.8815 16.1912 44.6777C16.3819 44.4706 16.5282 44.2208 16.6301 43.9281C16.7353 43.6355 16.7978 43.3035 16.8175 42.932H15.9052C15.8822 43.218 15.8427 43.463 15.7868 43.6668C15.731 43.8673 15.6488 44.0333 15.5403 44.1648C15.4351 44.2931 15.297 44.3884 15.126 44.4509C14.9584 44.51 14.7512 44.5396 14.5047 44.5396C14.2417 44.5396 14.0181 44.4821 13.834 44.367C13.6499 44.2487 13.5003 44.0876 13.3853 43.8837C13.2735 43.6799 13.1913 43.4416 13.1387 43.1687C13.0894 42.8958 13.0648 42.6016 13.0648 42.286V40.9496C13.0648 40.611 13.0943 40.3036 13.1535 40.0274C13.216 39.7513 13.3097 39.5162 13.4346 39.3222C13.5595 39.1283 13.7173 38.9787 13.908 38.8735C14.0987 38.765 14.3256 38.7108 14.5885 38.7108C14.8088 38.7108 14.9978 38.7436 15.1556 38.8094C15.3134 38.8719 15.4449 38.9705 15.5501 39.1053C15.6553 39.2368 15.7359 39.4044 15.7918 39.6083C15.8477 39.8121 15.8855 40.0554 15.9052 40.3381H16.8175C16.8011 39.9502 16.7402 39.6066 16.635 39.3074C16.5298 39.0083 16.3835 38.7568 16.1962 38.5529C16.0088 38.3491 15.7803 38.1946 15.5107 38.0894C15.2444 37.9842 14.937 37.9316 14.5885 37.9316L14.5886 37.9317ZM36.8586 37.9317C36.4773 37.9317 36.1354 38.004 35.8329 38.1486C35.5304 38.29 35.274 38.4922 35.0636 38.7552C34.8565 39.0182 34.697 39.3371 34.5853 39.7119C34.4768 40.0833 34.4225 40.4992 34.4225 40.9595V42.286C34.4225 42.7495 34.4768 43.1671 34.5853 43.5386C34.697 43.9101 34.8548 44.2273 35.0587 44.4903C35.2625 44.7533 35.5091 44.9555 35.7984 45.0969C36.0877 45.2382 36.4131 45.3089 36.7748 45.3089C37.1463 45.3089 37.4717 45.2547 37.7512 45.1462C38.0339 45.0377 38.2706 44.8815 38.4613 44.6777C38.652 44.4706 38.7983 44.2208 38.9002 43.9281C39.0054 43.6355 39.0679 43.3035 39.0876 42.932H38.1753C38.1523 43.218 38.1129 43.463 38.057 43.6668C38.0011 43.8673 37.9189 44.0333 37.8104 44.1648C37.7052 44.2931 37.5671 44.3884 37.3961 44.4509C37.2285 44.51 37.0214 44.5396 36.7748 44.5396C36.5118 44.5396 36.2882 44.4821 36.1042 44.367C35.9201 44.2487 35.7705 44.0876 35.6554 43.8837C35.5436 43.6799 35.4614 43.4416 35.4088 43.1687C35.3595 42.8958 35.3349 42.6016 35.3349 42.286V40.9496C35.3349 40.611 35.3645 40.3036 35.4236 40.0274C35.4861 39.7513 35.5798 39.5162 35.7047 39.3222C35.8297 39.1283 35.9875 38.9787 36.1781 38.8735C36.3688 38.765 36.5956 38.7108 36.8586 38.7108C37.0789 38.7108 37.2679 38.7436 37.4257 38.8094C37.5835 38.8719 37.715 38.9705 37.8202 39.1053C37.9254 39.2368 38.006 39.4044 38.0619 39.6083C38.1177 39.8121 38.1555 40.0554 38.1753 40.3381H39.0876C39.0711 39.9502 39.0103 39.6066 38.9051 39.3074C38.7999 39.0083 38.6536 38.7568 38.4662 38.5529C38.2788 38.3491 38.0503 38.1946 37.7808 38.0894C37.5145 37.9842 37.2071 37.9316 36.8586 37.9316L36.8586 37.9317ZM19.7865 38.0303L17.4737 45.2102H18.4008L18.958 43.3363H21.3842L21.9513 45.2102H22.8784L20.5607 38.0303H19.7865ZM23.8547 38.0303V45.2102H24.7571V42.3994H26.1428C26.488 42.3994 26.7938 42.3517 27.0601 42.2564C27.3263 42.1577 27.5499 42.0164 27.7307 41.8323C27.9148 41.6482 28.0529 41.4213 28.1449 41.1517C28.2403 40.8789 28.2879 40.5699 28.2879 40.2247C28.2879 39.9058 28.2403 39.6132 28.1449 39.3469C28.0529 39.0773 27.9164 38.8455 27.7356 38.6515C27.5548 38.4543 27.3296 38.3014 27.0601 38.1929C26.7938 38.0844 26.488 38.0302 26.1428 38.0302L23.8547 38.0303ZM28.9783 38.0303V38.8094H30.8621V45.2102H31.7645V38.8094H33.6532V38.0303H28.9783ZM40.3056 38.0303V45.2102H41.208V41.8915H44.0978V45.2102H45.0051V38.0303H44.0978V41.1173H41.208V38.0303H40.3056ZM48.4275 38.0303L46.1147 45.2102H47.0418L47.599 43.3363H50.0252L50.5923 45.2102H51.5194L49.2017 38.0303H48.4275ZM24.757 38.8094H26.1427C26.363 38.8094 26.5504 38.8489 26.7049 38.9278C26.8627 39.0067 26.9909 39.1119 27.0895 39.2434C27.1915 39.3749 27.2654 39.5278 27.3115 39.702C27.3608 39.8729 27.3854 40.0505 27.3854 40.2346C27.3854 40.4384 27.3608 40.6258 27.3115 40.7968C27.2654 40.9644 27.1915 41.1107 27.0895 41.2356C26.9909 41.3573 26.8627 41.4526 26.7049 41.5217C26.5504 41.5907 26.363 41.6252 26.1427 41.6252H24.757V38.8094ZM20.171 39.2927L21.1523 42.5573H19.1946L20.171 39.2927ZM48.812 39.2927L49.7934 42.5573H47.8356L48.812 39.2927ZM6.33415 39.776C6.10731 39.776 5.91169 39.8335 5.74731 39.9486C5.58622 40.0637 5.45143 40.2198 5.34295 40.4171L5.32816 39.8746H4.47998V45.2103H5.35283V41.3933C5.43502 41.1665 5.55173 40.9873 5.70296 40.8558C5.85747 40.7243 6.05308 40.6585 6.2898 40.6585C6.36541 40.6585 6.43281 40.6619 6.49198 40.6684C6.55116 40.6718 6.61526 40.6799 6.68431 40.693L6.67937 39.8449C6.66622 39.8383 6.64485 39.8317 6.61526 39.8251C6.58897 39.8152 6.55938 39.807 6.5265 39.8005C6.49362 39.7939 6.45911 39.7889 6.42294 39.7857C6.39006 39.7791 6.36048 39.7758 6.33418 39.7758L6.33415 39.776ZM9.26829 39.776C9.01515 39.776 8.77023 39.8204 8.53353 39.9091C8.29683 39.9979 8.08643 40.1442 7.90234 40.348C7.72153 40.5486 7.57523 40.8116 7.46345 41.137C7.35167 41.4592 7.29578 41.8554 7.29578 42.3255V42.9271C7.29578 43.3348 7.34346 43.6882 7.43879 43.9874C7.53413 44.2865 7.67057 44.5347 7.84808 44.732C8.0289 44.926 8.24751 45.0706 8.50395 45.166C8.76038 45.2613 9.04805 45.309 9.36695 45.309C9.59708 45.309 9.80255 45.286 9.98336 45.24C10.1675 45.1939 10.3302 45.1347 10.4716 45.0624C10.6129 44.9868 10.7346 44.9013 10.8365 44.806C10.9384 44.7107 11.0255 44.612 11.0978 44.5101L10.6442 43.9578C10.5718 44.0466 10.4946 44.1288 10.4124 44.2044C10.3302 44.2767 10.2398 44.3408 10.1412 44.3967C10.0425 44.4493 9.93406 44.4904 9.81571 44.52C9.69736 44.5495 9.56421 44.5644 9.41628 44.5644C9.01192 44.5644 8.70123 44.4345 8.48425 44.1748C8.27056 43.9151 8.16371 43.4992 8.16371 42.9271V42.8039H11.1422V42.2959C11.1422 41.8883 11.1077 41.5283 11.0387 41.216C10.9696 40.9036 10.8595 40.6406 10.7083 40.427C10.5571 40.2133 10.3631 40.0522 10.1264 39.9437C9.88966 39.8319 9.60366 39.776 9.2683 39.776L9.26829 39.776ZM9.26829 40.5256C9.45897 40.5256 9.61677 40.5601 9.74171 40.6291C9.86664 40.6982 9.96527 40.7952 10.0376 40.9201C10.1132 41.045 10.1675 41.1946 10.2003 41.3688C10.2365 41.5398 10.2595 41.7288 10.2694 41.9359V42.0543H8.16862C8.18177 41.7551 8.21793 41.5069 8.27711 41.3096C8.33629 41.1124 8.41354 40.9562 8.50888 40.8412C8.60751 40.7228 8.72093 40.6406 8.84915 40.5946C8.97736 40.5486 9.11708 40.5256 9.26832 40.5256L9.26829 40.5256Z" fill="#A6A6A6"/>
</g>
<path d="M2.98047 54.8789H1.5V54.1016H2.98047C3.23828 54.1016 3.44661 54.0599 3.60547 53.9766C3.76432 53.8932 3.88021 53.7786 3.95312 53.6328C4.02865 53.4844 4.06641 53.3151 4.06641 53.125C4.06641 52.9453 4.02865 52.7773 3.95312 52.6211C3.88021 52.4622 3.76432 52.3346 3.60547 52.2383C3.44661 52.1419 3.23828 52.0938 2.98047 52.0938H1.80078V57H0.820312V51.3125H2.98047C3.42057 51.3125 3.79427 51.3906 4.10156 51.5469C4.41146 51.7005 4.64714 51.9141 4.80859 52.1875C4.97005 52.4583 5.05078 52.7682 5.05078 53.1172C5.05078 53.4844 4.97005 53.7995 4.80859 54.0625C4.64714 54.3255 4.41146 54.5273 4.10156 54.668C3.79427 54.8086 3.42057 54.8789 2.98047 54.8789ZM6.78125 53.5781V57H5.83984V52.7734H6.73828L6.78125 53.5781ZM8.07422 52.7461L8.06641 53.6211C8.00911 53.6107 7.94661 53.6029 7.87891 53.5977C7.8138 53.5924 7.7487 53.5898 7.68359 53.5898C7.52214 53.5898 7.38021 53.6133 7.25781 53.6602C7.13542 53.7044 7.03255 53.7695 6.94922 53.8555C6.86849 53.9388 6.80599 54.0404 6.76172 54.1602C6.71745 54.2799 6.69141 54.4141 6.68359 54.5625L6.46875 54.5781C6.46875 54.3125 6.49479 54.0664 6.54688 53.8398C6.59896 53.6133 6.67708 53.4141 6.78125 53.2422C6.88802 53.0703 7.02083 52.9362 7.17969 52.8398C7.34115 52.7435 7.52734 52.6953 7.73828 52.6953C7.79557 52.6953 7.85677 52.7005 7.92188 52.7109C7.98958 52.7214 8.04036 52.7331 8.07422 52.7461ZM9.67188 52.7734V57H8.72656V52.7734H9.67188ZM8.66406 51.6641C8.66406 51.5208 8.71094 51.4023 8.80469 51.3086C8.90104 51.2122 9.03385 51.1641 9.20312 51.1641C9.36979 51.1641 9.5013 51.2122 9.59766 51.3086C9.69401 51.4023 9.74219 51.5208 9.74219 51.6641C9.74219 51.8047 9.69401 51.9219 9.59766 52.0156C9.5013 52.1094 9.36979 52.1562 9.20312 52.1562C9.03385 52.1562 8.90104 52.1094 8.80469 52.0156C8.71094 51.9219 8.66406 51.8047 8.66406 51.6641ZM12.0781 56.2539L13.1133 52.7734H14.0898L12.6211 57H12.0117L12.0781 56.2539ZM11.2852 52.7734L12.3398 56.2695L12.3906 57H11.7812L10.3047 52.7734H11.2852ZM16.9922 56.1523V54.1367C16.9922 53.9857 16.9648 53.8555 16.9102 53.7461C16.8555 53.6367 16.7721 53.5521 16.6602 53.4922C16.5508 53.4323 16.4128 53.4023 16.2461 53.4023C16.0924 53.4023 15.9596 53.4284 15.8477 53.4805C15.7357 53.5326 15.6484 53.6029 15.5859 53.6914C15.5234 53.7799 15.4922 53.8802 15.4922 53.9922H14.5547C14.5547 53.8255 14.5951 53.6641 14.6758 53.5078C14.7565 53.3516 14.8737 53.2122 15.0273 53.0898C15.181 52.9674 15.3646 52.8711 15.5781 52.8008C15.7917 52.7305 16.0312 52.6953 16.2969 52.6953C16.6146 52.6953 16.8958 52.7487 17.1406 52.8555C17.388 52.9622 17.582 53.1237 17.7227 53.3398C17.8659 53.5534 17.9375 53.8216 17.9375 54.1445V56.0234C17.9375 56.2161 17.9505 56.3893 17.9766 56.543C18.0052 56.694 18.0456 56.8255 18.0977 56.9375V57H17.1328C17.0885 56.8984 17.0534 56.7695 17.0273 56.6133C17.0039 56.4544 16.9922 56.3008 16.9922 56.1523ZM17.1289 54.4297L17.1367 55.0117H16.4609C16.2865 55.0117 16.1328 55.0286 16 55.0625C15.8672 55.0938 15.7565 55.1406 15.668 55.2031C15.5794 55.2656 15.513 55.3411 15.4688 55.4297C15.4245 55.5182 15.4023 55.6185 15.4023 55.7305C15.4023 55.8424 15.4284 55.9453 15.4805 56.0391C15.5326 56.1302 15.6081 56.2018 15.707 56.2539C15.8086 56.306 15.931 56.332 16.0742 56.332C16.2669 56.332 16.4349 56.293 16.5781 56.2148C16.724 56.1341 16.8385 56.0365 16.9219 55.9219C17.0052 55.8047 17.0495 55.694 17.0547 55.5898L17.3594 56.0078C17.3281 56.1146 17.2747 56.2292 17.1992 56.3516C17.1237 56.474 17.0247 56.5911 16.9023 56.7031C16.7826 56.8125 16.638 56.9023 16.4688 56.9727C16.3021 57.043 16.1094 57.0781 15.8906 57.0781C15.6146 57.0781 15.3685 57.0234 15.1523 56.9141C14.9362 56.8021 14.7669 56.6523 14.6445 56.4648C14.5221 56.2747 14.4609 56.0599 14.4609 55.8203C14.4609 55.5964 14.5026 55.3984 14.5859 55.2266C14.6719 55.0521 14.7969 54.9062 14.9609 54.7891C15.1276 54.6719 15.3307 54.5833 15.5703 54.5234C15.8099 54.4609 16.0833 54.4297 16.3906 54.4297H17.1289ZM20.6484 56.3281C20.8021 56.3281 20.9401 56.2982 21.0625 56.2383C21.1875 56.1758 21.2878 56.0898 21.3633 55.9805C21.4414 55.8711 21.4844 55.7448 21.4922 55.6016H22.3789C22.3737 55.875 22.293 56.1237 22.1367 56.3477C21.9805 56.5716 21.7734 56.75 21.5156 56.8828C21.2578 57.013 20.9727 57.0781 20.6602 57.0781C20.3372 57.0781 20.056 57.0234 19.8164 56.9141C19.5768 56.8021 19.3776 56.6484 19.2188 56.4531C19.0599 56.2578 18.9401 56.0326 18.8594 55.7773C18.7812 55.5221 18.7422 55.2487 18.7422 54.957V54.8203C18.7422 54.5286 18.7812 54.2552 18.8594 54C18.9401 53.7422 19.0599 53.5156 19.2188 53.3203C19.3776 53.125 19.5768 52.9727 19.8164 52.8633C20.056 52.7513 20.3359 52.6953 20.6562 52.6953C20.9948 52.6953 21.2917 52.763 21.5469 52.8984C21.8021 53.0312 22.0026 53.2174 22.1484 53.457C22.2969 53.694 22.3737 53.9701 22.3789 54.2852H21.4922C21.4844 54.1289 21.4453 53.9883 21.375 53.8633C21.3073 53.7357 21.2109 53.6341 21.0859 53.5586C20.9635 53.4831 20.8164 53.4453 20.6445 53.4453C20.4544 53.4453 20.2969 53.4844 20.1719 53.5625C20.0469 53.638 19.9492 53.7422 19.8789 53.875C19.8086 54.0052 19.7578 54.1523 19.7266 54.3164C19.6979 54.4779 19.6836 54.6458 19.6836 54.8203V54.957C19.6836 55.1315 19.6979 55.3008 19.7266 55.4648C19.7552 55.6289 19.8047 55.776 19.875 55.9062C19.9479 56.0339 20.0469 56.1367 20.1719 56.2148C20.2969 56.2904 20.4557 56.3281 20.6484 56.3281ZM24.3281 56.5391L25.4766 52.7734H26.4844L24.7891 57.6445C24.75 57.7487 24.6992 57.862 24.6367 57.9844C24.5742 58.1068 24.4922 58.2227 24.3906 58.332C24.2917 58.444 24.168 58.5339 24.0195 58.6016C23.8711 58.6719 23.6914 58.707 23.4805 58.707C23.3971 58.707 23.3164 58.6992 23.2383 58.6836C23.1628 58.6706 23.0911 58.6562 23.0234 58.6406L23.0195 57.9219C23.0456 57.9245 23.0768 57.9271 23.1133 57.9297C23.1523 57.9323 23.1836 57.9336 23.207 57.9336C23.3633 57.9336 23.4935 57.9141 23.5977 57.875C23.7018 57.8385 23.7865 57.7786 23.8516 57.6953C23.9193 57.612 23.9766 57.5 24.0234 57.3594L24.3281 56.5391ZM23.6797 52.7734L24.6836 55.9375L24.8516 56.9297L24.1992 57.0977L22.6641 52.7734H23.6797ZM30.9102 54.1953V54.9453H28.8438V54.1953H30.9102ZM35.9727 51.3125V57H35V51.3125H35.9727ZM37.7578 51.3125V52.0938H33.2305V51.3125H37.7578ZM39.9023 57.0781C39.5898 57.0781 39.3073 57.0273 39.0547 56.9258C38.8047 56.8216 38.5911 56.6771 38.4141 56.4922C38.2396 56.3073 38.1055 56.0898 38.0117 55.8398C37.918 55.5898 37.8711 55.3203 37.8711 55.0312V54.875C37.8711 54.5443 37.9193 54.2448 38.0156 53.9766C38.112 53.7083 38.2461 53.4792 38.418 53.2891C38.5898 53.0964 38.793 52.9492 39.0273 52.8477C39.2617 52.7461 39.5156 52.6953 39.7891 52.6953C40.0911 52.6953 40.3555 52.7461 40.582 52.8477C40.8086 52.9492 40.9961 53.0924 41.1445 53.2773C41.2956 53.4596 41.4076 53.6771 41.4805 53.9297C41.556 54.1823 41.5938 54.4609 41.5938 54.7656V55.168H38.3281V54.4922H40.6641V54.418C40.6589 54.2487 40.625 54.0898 40.5625 53.9414C40.5026 53.793 40.4102 53.6732 40.2852 53.582C40.1602 53.4909 39.9935 53.4453 39.7852 53.4453C39.6289 53.4453 39.4896 53.4792 39.3672 53.5469C39.2474 53.612 39.1471 53.707 39.0664 53.832C38.9857 53.957 38.9232 54.1081 38.8789 54.2852C38.8372 54.4596 38.8164 54.6562 38.8164 54.875V55.0312C38.8164 55.2161 38.8411 55.388 38.8906 55.5469C38.9427 55.7031 39.0182 55.8398 39.1172 55.957C39.2161 56.0742 39.3359 56.1667 39.4766 56.2344C39.6172 56.2995 39.7773 56.332 39.957 56.332C40.1836 56.332 40.3854 56.2865 40.5625 56.1953C40.7396 56.1042 40.8932 55.9753 41.0234 55.8086L41.5195 56.2891C41.4284 56.4219 41.3099 56.5495 41.1641 56.6719C41.0182 56.7917 40.8398 56.8893 40.6289 56.9648C40.4206 57.0404 40.1784 57.0781 39.9023 57.0781ZM43.2734 53.5781V57H42.332V52.7734H43.2305L43.2734 53.5781ZM44.5664 52.7461L44.5586 53.6211C44.5013 53.6107 44.4388 53.6029 44.3711 53.5977C44.306 53.5924 44.2409 53.5898 44.1758 53.5898C44.0143 53.5898 43.8724 53.6133 43.75 53.6602C43.6276 53.7044 43.5247 53.7695 43.4414 53.8555C43.3607 53.9388 43.2982 54.0404 43.2539 54.1602C43.2096 54.2799 43.1836 54.4141 43.1758 54.5625L42.9609 54.5781C42.9609 54.3125 42.987 54.0664 43.0391 53.8398C43.0911 53.6133 43.1693 53.4141 43.2734 53.2422C43.3802 53.0703 43.513 52.9362 43.6719 52.8398C43.8333 52.7435 44.0195 52.6953 44.2305 52.6953C44.2878 52.6953 44.349 52.7005 44.4141 52.7109C44.4818 52.7214 44.5326 52.7331 44.5664 52.7461ZM46.0977 53.6328V57H45.1562V52.7734H46.043L46.0977 53.6328ZM45.9453 54.7305L45.625 54.7266C45.625 54.4349 45.6615 54.1654 45.7344 53.918C45.8073 53.6706 45.9141 53.4557 46.0547 53.2734C46.1953 53.0885 46.3698 52.9466 46.5781 52.8477C46.7891 52.7461 47.0326 52.6953 47.3086 52.6953C47.5013 52.6953 47.6771 52.724 47.8359 52.7812C47.9974 52.8359 48.1367 52.9232 48.2539 53.043C48.3737 53.1628 48.4648 53.3164 48.5273 53.5039C48.5924 53.6914 48.625 53.918 48.625 54.1836V57H47.6836V54.2656C47.6836 54.0599 47.6523 53.8984 47.5898 53.7812C47.5299 53.6641 47.4427 53.5807 47.3281 53.5312C47.2161 53.4792 47.082 53.4531 46.9258 53.4531C46.7487 53.4531 46.5977 53.487 46.4727 53.5547C46.3503 53.6224 46.25 53.7148 46.1719 53.832C46.0938 53.9492 46.0365 54.0846 46 54.2383C45.9635 54.3919 45.9453 54.556 45.9453 54.7305ZM48.5664 54.4805L48.125 54.5781C48.125 54.3229 48.1602 54.082 48.2305 53.8555C48.3034 53.6263 48.4089 53.4258 48.5469 53.2539C48.6875 53.0794 48.8607 52.9427 49.0664 52.8438C49.2721 52.7448 49.5078 52.6953 49.7734 52.6953C49.9896 52.6953 50.1823 52.7253 50.3516 52.7852C50.5234 52.8424 50.6693 52.9336 50.7891 53.0586C50.9089 53.1836 51 53.3464 51.0625 53.5469C51.125 53.7448 51.1562 53.9844 51.1562 54.2656V57H50.2109V54.2617C50.2109 54.0482 50.1797 53.8828 50.1172 53.7656C50.0573 53.6484 49.9714 53.5677 49.8594 53.5234C49.7474 53.4766 49.6133 53.4531 49.457 53.4531C49.3112 53.4531 49.1823 53.4805 49.0703 53.5352C48.9609 53.5872 48.8685 53.6615 48.793 53.7578C48.7174 53.8516 48.6602 53.9596 48.6211 54.082C48.5846 54.2044 48.5664 54.3372 48.5664 54.4805ZM54.4961 55.8555C54.4961 55.7617 54.4727 55.6771 54.4258 55.6016C54.3789 55.5234 54.2891 55.4531 54.1562 55.3906C54.026 55.3281 53.8333 55.2708 53.5781 55.2188C53.3542 55.1693 53.1484 55.1107 52.9609 55.043C52.776 54.9727 52.6172 54.888 52.4844 54.7891C52.3516 54.6901 52.2487 54.5729 52.1758 54.4375C52.1029 54.3021 52.0664 54.1458 52.0664 53.9688C52.0664 53.7969 52.1042 53.6341 52.1797 53.4805C52.2552 53.3268 52.3633 53.1914 52.5039 53.0742C52.6445 52.957 52.8151 52.8646 53.0156 52.7969C53.2188 52.7292 53.4453 52.6953 53.6953 52.6953C54.0495 52.6953 54.3529 52.7552 54.6055 52.875C54.8607 52.9922 55.056 53.1523 55.1914 53.3555C55.3268 53.556 55.3945 53.7826 55.3945 54.0352H54.4531C54.4531 53.9232 54.4245 53.819 54.3672 53.7227C54.3125 53.6237 54.2292 53.5443 54.1172 53.4844C54.0052 53.4219 53.8646 53.3906 53.6953 53.3906C53.5339 53.3906 53.3997 53.4167 53.293 53.4688C53.1888 53.5182 53.1107 53.5833 53.0586 53.6641C53.0091 53.7448 52.9844 53.8333 52.9844 53.9297C52.9844 54 52.9974 54.0638 53.0234 54.1211C53.0521 54.1758 53.099 54.2266 53.1641 54.2734C53.2292 54.3177 53.3177 54.3594 53.4297 54.3984C53.5443 54.4375 53.6875 54.4753 53.8594 54.5117C54.1823 54.5794 54.4596 54.6667 54.6914 54.7734C54.9258 54.8776 55.1055 55.013 55.2305 55.1797C55.3555 55.3438 55.418 55.5521 55.418 55.8047C55.418 55.9922 55.3776 56.1641 55.2969 56.3203C55.2188 56.474 55.1042 56.6081 54.9531 56.7227C54.8021 56.8346 54.6211 56.9219 54.4102 56.9844C54.2018 57.0469 53.9674 57.0781 53.707 57.0781C53.3242 57.0781 53 57.0104 52.7344 56.875C52.4688 56.737 52.2669 56.5612 52.1289 56.3477C51.9935 56.1315 51.9258 55.9076 51.9258 55.6758H52.8359C52.8464 55.8503 52.8945 55.9896 52.9805 56.0938C53.069 56.1953 53.1784 56.2695 53.3086 56.3164C53.4414 56.3607 53.5781 56.3828 53.7188 56.3828C53.888 56.3828 54.0299 56.3607 54.1445 56.3164C54.2591 56.2695 54.3464 56.207 54.4062 56.1289C54.4661 56.0482 54.4961 55.957 54.4961 55.8555Z" fill="#A6A6A6"/>
<defs>
<clipPath id="clip0_1_8243">
<rect width="48" height="46" fill="white" transform="translate(4)"/>
</clipPath>
</defs>
</svg>
