<svg width="15" height="16" viewBox="0 0 15 16" fill="none" xmlns="http://www.w3.org/2000/svg">
<path fill-rule="evenodd" clip-rule="evenodd" d="M7.5 1.12512C3.70312 1.12512 0.625 4.20325 0.625 8.00012C0.625 11.797 3.70312 14.8751 7.5 14.8751C11.2969 14.8751 14.375 11.797 14.375 8.00012C14.375 4.20325 11.2969 1.12512 7.5 1.12512ZM10.48 6.83762C10.5349 6.7749 10.5766 6.70183 10.6029 6.62273C10.6291 6.54362 10.6392 6.46007 10.6327 6.37699C10.6261 6.29391 10.603 6.21297 10.5647 6.13895C10.5264 6.06493 10.4737 5.99931 10.4097 5.94596C10.3457 5.89261 10.2716 5.8526 10.1919 5.82829C10.1122 5.80397 10.0285 5.79585 9.94555 5.80439C9.86265 5.81293 9.7823 5.83796 9.70922 5.87802C9.63613 5.91807 9.5718 5.97234 9.52 6.03762L6.8325 9.262L5.44187 7.87075C5.324 7.7569 5.16612 7.6939 5.00225 7.69533C4.83838 7.69675 4.68162 7.76248 4.56574 7.87836C4.44986 7.99424 4.38413 8.151 4.3827 8.31487C4.38128 8.47874 4.44428 8.63662 4.55812 8.7545L6.43312 10.6295C6.49453 10.6909 6.56806 10.7388 6.64901 10.7702C6.72996 10.8015 6.81656 10.8157 6.90329 10.8118C6.99002 10.8078 7.07498 10.7859 7.15276 10.7473C7.23053 10.7087 7.29941 10.6543 7.355 10.5876L10.48 6.83762Z" fill="#DEDEE3"/>
</svg>
