<svg width="35" height="21" viewBox="0 0 35 21" fill="none" xmlns="http://www.w3.org/2000/svg">
<path fill-rule="evenodd" clip-rule="evenodd" d="M9.99998 1.33334C4.93748 1.33334 0.833313 5.43751 0.833313 10.5C0.833313 15.5625 4.93748 19.6667 9.99998 19.6667C15.0625 19.6667 19.1666 15.5625 19.1666 10.5C19.1666 5.43751 15.0625 1.33334 9.99998 1.33334ZM13.9733 8.95001C14.0465 8.86638 14.1022 8.76896 14.1371 8.66348C14.1721 8.55801 14.1856 8.4466 14.1769 8.33583C14.1681 8.22506 14.1373 8.11715 14.0863 8.01845C14.0352 7.91975 13.965 7.83226 13.8796 7.76113C13.7942 7.68999 13.6955 7.63665 13.5892 7.60423C13.4829 7.57181 13.3712 7.56098 13.2607 7.57237C13.1502 7.58375 13.043 7.61713 12.9456 7.67054C12.8482 7.72394 12.7624 7.7963 12.6933 7.88334L9.10998 12.1825L7.25581 10.3275C7.09864 10.1757 6.88814 10.0917 6.66965 10.0936C6.45115 10.0955 6.24214 10.1832 6.08763 10.3377C5.93312 10.4922 5.84548 10.7012 5.84358 10.9197C5.84169 11.1382 5.92568 11.3487 6.07748 11.5058L8.57748 14.0058C8.65936 14.0877 8.75739 14.1515 8.86533 14.1934C8.97326 14.2352 9.08873 14.2541 9.20437 14.2489C9.32001 14.2436 9.43329 14.2143 9.53699 14.1629C9.64068 14.1114 9.73252 14.0389 9.80665 13.95L13.9733 8.95001Z" fill="#25AB75"/>
</svg>
