<svg width="15" height="16" viewBox="0 0 15 16" fill="none" xmlns="http://www.w3.org/2000/svg">
<path fill-rule="evenodd" clip-rule="evenodd" d="M7.5 1.125C3.70312 1.125 0.625 4.20312 0.625 8C0.625 11.7969 3.70312 14.875 7.5 14.875C11.2969 14.875 14.375 11.7969 14.375 8C14.375 4.20312 11.2969 1.125 7.5 1.125ZM10.48 6.8375C10.5349 6.77478 10.5766 6.70171 10.6029 6.6226C10.6291 6.5435 10.6392 6.45995 10.6327 6.37686C10.6261 6.29378 10.603 6.21285 10.5647 6.13883C10.5264 6.06481 10.4737 5.99919 10.4097 5.94584C10.3457 5.89249 10.2716 5.85248 10.1919 5.82816C10.1122 5.80385 10.0285 5.79573 9.94555 5.80427C9.86265 5.81281 9.7823 5.83784 9.70922 5.8779C9.63613 5.91795 9.5718 5.97221 9.52 6.0375L6.8325 9.26187L5.44187 7.87062C5.324 7.75678 5.16612 7.69378 5.00225 7.6952C4.83838 7.69663 4.68162 7.76236 4.56574 7.87824C4.44986 7.99412 4.38413 8.15088 4.3827 8.31475C4.38128 8.47862 4.44428 8.6365 4.55812 8.75437L6.43312 10.6294C6.49453 10.6907 6.56806 10.7387 6.64901 10.77C6.72996 10.8014 6.81656 10.8156 6.90329 10.8117C6.99002 10.8077 7.07498 10.7857 7.15276 10.7472C7.23053 10.7086 7.29941 10.6542 7.355 10.5875L10.48 6.8375Z" fill="#25AB75"/>
</svg>
